<svg xmlns="http://www.w3.org/2000/svg" xmlns:xlink="http://www.w3.org/1999/xlink" viewBox="0 0 512 512"><defs><style>.cls-1{fill:url(#linear-gradient);}.cls-2{fill:#e97ec0;}.cls-14,.cls-3{fill:#6e99e7;}.cls-4{fill:none;}.cls-5{font-size:55px;font-family:Montserrat-Black, Montserrat;font-weight:800;}.cls-10,.cls-5{fill:#303030;}.cls-6{letter-spacing:-0.01em;}.cls-7{letter-spacing:-0.02em;}.cls-8{letter-spacing:0em;}.cls-9{letter-spacing:0.01em;}.cls-10{font-size:25px;font-family:Montserrat-SemiBoldItalic, Montserrat;font-weight:600;}.cls-10,.cls-14{font-style:italic;}.cls-11{letter-spacing:-0.01em;}.cls-12{letter-spacing:0.01em;}.cls-13{letter-spacing:-0.02em;}.cls-14{font-size:21.07px;font-family:Montserrat-Italic, Montserrat;}.cls-15{letter-spacing:-0.01em;}</style><linearGradient id="linear-gradient" y1="256" x2="512" y2="256" gradientUnits="userSpaceOnUse"><stop offset="0" stop-color="#fff"/><stop offset="0.35" stop-color="#cbdbf6"/><stop offset="1" stop-color="#6e99e7"/></linearGradient></defs><g id="Layer_2" data-name="Layer 2"><g id="Layer_1-2" data-name="Layer 1"><rect class="cls-1" width="512" height="512" transform="translate(0 512) rotate(-90)"/><path class="cls-2" d="M255.75,435.33a1,1,0,0,1-1-1V410.52a1,1,0,0,1,2.07,0v23.79A1,1,0,0,1,255.75,435.33Z"/><path class="cls-2" d="M255.75,435.08a.77.77,0,0,1-.79-.77V410.52a.79.79,0,0,1,1.57,0v23.79A.77.77,0,0,1,255.75,435.08Z"/><path class="cls-2" d="M281.8,435.33a1,1,0,0,1-1-1V418.36a7.68,7.68,0,0,0-2.2-5.44,7.07,7.07,0,0,0-5.23-2.17,7.37,7.37,0,0,0-5.22,2.14,7.11,7.11,0,0,0-2.24,5.32V434.3a1,1,0,0,1-2.07,0V418.21a9.53,9.53,0,0,1,19.05,0V434.3a1,1,0,0,1-1,1Z"/><path class="cls-2" d="M281.8,435.08a.79.79,0,0,1-.79-.78V418.36a8,8,0,0,0-2.27-5.62,7.35,7.35,0,0,0-5.41-2.23,7.66,7.66,0,0,0-5.4,2.2,7.38,7.38,0,0,0-2.3,5.5V434.3a.79.79,0,0,1-1.58,0V418.21a9.28,9.28,0,0,1,18.55,0V434.3a.78.78,0,0,1-.78.78Z"/><path class="cls-3" d="M192.78,435.43a1,1,0,0,1-1-.74l-6.19-20.11a.49.49,0,0,0-1,0l-5.2,20.11a1,1,0,0,1-1,.74h-1a1,1,0,0,1-1-.76l-7.79-29.57a1,1,0,0,1,1-1.28h.12a1,1,0,0,1,1,.76l6.78,25.9a.38.38,0,0,0,.73,0l5.12-20a1,1,0,0,1,1-.75h1.31a1,1,0,0,1,1,.75l6.15,20a.38.38,0,0,0,.73,0L199,410a1,1,0,0,1,1-.76h.12a1,1,0,0,1,.81.4,1,1,0,0,1,.17.88l-6.34,24.12a1,1,0,0,1-1,.76Z"/><path class="cls-3" d="M192.78,435.18a.76.76,0,0,1-.74-.56l-6.19-20.12a.74.74,0,0,0-.71-.53.72.72,0,0,0-.72.54l-5.2,20.12a.76.76,0,0,1-.73.55h-1a.75.75,0,0,1-.74-.57L169,405a.76.76,0,0,1,.74-1h.12a.76.76,0,0,1,.74.57l6.78,25.91a.62.62,0,0,0,1.21,0l5.12-20a.77.77,0,0,1,.74-.56h1.31a.77.77,0,0,1,.74.56l6.15,20a.61.61,0,0,0,.6.45.62.62,0,0,0,.61-.47l5.34-20.45a.77.77,0,0,1,.74-.58h.12a.77.77,0,0,1,.61.3.73.73,0,0,1,.13.67l-6.34,24.12a.77.77,0,0,1-.74.57Z"/><path class="cls-3" d="M310.56,435.43a1,1,0,0,1-.95-.64l-3.75-9.4L301,412.78a.43.43,0,0,0-.8,0l-4.94,12.61-3.63,9.39a1,1,0,0,1-.94.65,1,1,0,0,1-1-1.39l9.56-24.12a1,1,0,0,1,.94-.64h1a1,1,0,0,1,1,.64l9.44,24.13a1,1,0,0,1-.11.94,1,1,0,0,1-.83.44Z"/><path class="cls-3" d="M310.56,435.19a.77.77,0,0,1-.72-.49l-3.75-9.4-4.82-12.61a.68.68,0,0,0-1.26,0l-4.94,12.61-3.63,9.39a.76.76,0,0,1-.71.5.79.79,0,0,1-.68-.34.78.78,0,0,1-.08-.71L299.53,410a.78.78,0,0,1,.71-.49h1a.78.78,0,0,1,.72.49l9.44,24.13a.78.78,0,0,1-.08.71.77.77,0,0,1-.63.34Z"/><path class="cls-3" d="M346.57,442.87a1,1,0,0,1-1-1V412.15a.93.93,0,0,0-.93-.92h-7a1,1,0,0,1,0-2h17.87a1,1,0,0,1,0,2h-7.05a.93.93,0,0,0-.93.92V441.9a1,1,0,0,1-1,1Z"/><path class="cls-3" d="M346.57,442.62a.73.73,0,0,1-.73-.72V412.15a1.17,1.17,0,0,0-1.17-1.17h-7a.73.73,0,0,1,0-1.46h17.87a.73.73,0,0,1,0,1.46h-7.05a1.18,1.18,0,0,0-1.18,1.17V441.9a.72.72,0,0,1-.73.72Z"/><path class="cls-3" d="M206.41,435.43a1,1,0,0,1-.95-.95V410.23a1,1,0,0,1,.95-1h15.25a1,1,0,0,1,0,2h-13.3a.9.9,0,0,0-.9.9v20.49a.9.9,0,0,0,.9.9h13.3a1,1,0,1,1,0,1.91Z"/><path class="cls-3" d="M206.41,435.18a.7.7,0,0,1-.7-.7V410.23a.71.71,0,0,1,.7-.71h15.25a.71.71,0,0,1,.71.71.72.72,0,0,1-.71.75h-13.3a1.15,1.15,0,0,0-1.15,1.15v20.49a1.15,1.15,0,0,0,1.15,1.15h13.3a.71.71,0,0,1,.71.71.7.7,0,0,1-.71.7Z"/><path class="cls-3" d="M228.15,435.43a1,1,0,0,1-1-1V410.29a1,1,0,0,1,1-1h11.16a5.6,5.6,0,0,1,4.16,1.83,6.49,6.49,0,0,1,1.69,4.46,8.31,8.31,0,0,1-1,4.21,5,5,0,0,1-.8,1.1,1,1,0,0,0-.27.81.86.86,0,0,0,.41.66,5.93,5.93,0,0,1,1.52,1.45,7,7,0,0,1,1.34,4.22,7.44,7.44,0,0,1-2,5.24,6.7,6.7,0,0,1-5,2.18Zm1.94-12.63a1,1,0,0,0-1,1v8.79a1,1,0,0,0,1,1H239a5.53,5.53,0,0,0,4.95-3.17.94.94,0,0,0,.1-.23c.71-2.38.3-4.32-1.24-5.78A5.29,5.29,0,0,0,239,422.8Zm0-11.57a1,1,0,0,0-1,1V420a1,1,0,0,0,1,1H239a3.7,3.7,0,0,0,3-1.57,6,6,0,0,0,1.24-3.81,4.26,4.26,0,0,0-1.24-3.06,4,4,0,0,0-3-1.27Z"/><path class="cls-3" d="M228.15,435.18a.76.76,0,0,1-.77-.76V410.29a.77.77,0,0,1,.77-.77h11.16a5.32,5.32,0,0,1,4,1.76,6.22,6.22,0,0,1,1.62,4.28,8.07,8.07,0,0,1-1,4.09,5,5,0,0,1-.75,1.05,1.23,1.23,0,0,0-.35,1,1.15,1.15,0,0,0,.52.84,5.82,5.82,0,0,1,1.47,1.39,6.73,6.73,0,0,1,1.28,4.07,7.18,7.18,0,0,1-2,5.07,6.45,6.45,0,0,1-4.81,2.1Zm1.94-12.62a1.21,1.21,0,0,0-1.21,1.21v8.79a1.21,1.21,0,0,0,1.21,1.21H239a5.79,5.79,0,0,0,5.17-3.29,1.48,1.48,0,0,0,.12-.29c.74-2.47.3-4.5-1.31-6a5.56,5.56,0,0,0-4-1.6Zm0-11.58a1.21,1.21,0,0,0-1.21,1.21V420a1.22,1.22,0,0,0,1.21,1.22H239a3.9,3.9,0,0,0,3.16-1.67,6.24,6.24,0,0,0,1.29-4,4.47,4.47,0,0,0-1.3-3.23A4.21,4.21,0,0,0,239,411Z"/><path class="cls-3" d="M316.48,435.43a1,1,0,0,1-1-1V410.27a1,1,0,0,1,1-1H328a6.13,6.13,0,0,1,4.63,2.05,6.85,6.85,0,0,1,1.91,4.89,8.29,8.29,0,0,1-1.15,4.4,5.43,5.43,0,0,1-1.36,1.48.94.94,0,0,0-.37.66,1,1,0,0,0,.27.78,6.45,6.45,0,0,1,1.16,1.85,14.33,14.33,0,0,1,1,5.65c0,1.23,0,2.13.08,2.74a3.83,3.83,0,0,0,.33,1.47.34.34,0,0,1,.06.17l-.11,0H333a.85.85,0,0,1-.44-.2,3.06,3.06,0,0,1-.57-1.8v-.07l-.13-3.68a7.77,7.77,0,0,0-1.25-4.44,3.47,3.47,0,0,0-2.91-1.78h-9.24a1,1,0,0,0-.95,1v10A1,1,0,0,1,316.48,435.43Zm1.94-24.2a1,1,0,0,0-.95.94v8.48a1,1,0,0,0,.95,1h9.24a4.6,4.6,0,0,0,3.45-1.54,5.2,5.2,0,0,0,1.41-3.67,5.28,5.28,0,0,0-1.41-3.67,4.66,4.66,0,0,0-3.45-1.49Z"/><path class="cls-3" d="M316.48,435.18a.74.74,0,0,1-.75-.75V410.27a.75.75,0,0,1,.75-.75H328a5.92,5.92,0,0,1,4.45,2,6.63,6.63,0,0,1,1.84,4.72,8,8,0,0,1-1.11,4.26,5.13,5.13,0,0,1-1.3,1.42,1.2,1.2,0,0,0-.47.84,1.25,1.25,0,0,0,.34,1,6,6,0,0,1,1.11,1.78,14,14,0,0,1,1,5.55c0,1.24,0,2.15.09,2.76a4.18,4.18,0,0,0,.27,1.39H333a.63.63,0,0,1-.26-.12,2.78,2.78,0,0,1-.5-1.65v-.06l-.13-3.68a8.07,8.07,0,0,0-1.29-4.57,3.71,3.71,0,0,0-3.12-1.89h-9.24a1.2,1.2,0,0,0-1.2,1.2v10A.74.74,0,0,1,316.48,435.18Zm1.94-24.2a1.19,1.19,0,0,0-1.2,1.19v8.48a1.19,1.19,0,0,0,1.2,1.19h9.24a4.84,4.84,0,0,0,3.63-1.61,5.41,5.41,0,0,0,1.48-3.84,5.52,5.52,0,0,0-1.48-3.84,4.91,4.91,0,0,0-3.63-1.57Z"/><path class="cls-2" d="M268.25,450.78a31.53,31.53,0,0,1-18.84-6.24,1.12,1.12,0,0,1-.42-.73,1.06,1.06,0,0,1,.26-.8,1.13,1.13,0,0,1,.87-.39,1.23,1.23,0,0,1,.71.23,29.17,29.17,0,0,0,34.86,0,1.18,1.18,0,0,1,.71-.23,1.12,1.12,0,0,1,.86.39,1,1,0,0,1,.26.8,1,1,0,0,1-.42.73A31.52,31.52,0,0,1,268.25,450.78Z"/><path class="cls-2" d="M268.25,450.53a31.24,31.24,0,0,1-18.69-6.19.85.85,0,0,1-.32-.56.81.81,0,0,1,.2-.61.86.86,0,0,1,.68-.31,1,1,0,0,1,.56.19,29.46,29.46,0,0,0,35.16,0,.91.91,0,0,1,1.24.12.84.84,0,0,1,.19.61.81.81,0,0,1-.32.56A31.25,31.25,0,0,1,268.25,450.53Z"/><path class="cls-2" d="M250.24,401.37a1.16,1.16,0,0,1-.85-.37,1,1,0,0,1,.13-1.54,31.44,31.44,0,0,1,18.69-6.63h.65a31.55,31.55,0,0,1,18.33,5.86,1,1,0,0,1,.44.72,1,1,0,0,1-.24.81,1.12,1.12,0,0,1-.86.4h0a1.15,1.15,0,0,1-.71-.22,29.26,29.26,0,0,0-17-5.42h-.6A29.1,29.1,0,0,0,251,401.12a1.2,1.2,0,0,1-.71.25Z"/><path class="cls-2" d="M250.24,401.12a.88.88,0,0,1-.67-.29.82.82,0,0,1-.21-.61.8.8,0,0,1,.31-.56,31.2,31.2,0,0,1,18.55-6.58h.64a31.32,31.32,0,0,1,18.19,5.82.84.84,0,0,1,.33.55.78.78,0,0,1-.18.62.9.9,0,0,1-1.23.14,29.55,29.55,0,0,0-17.11-5.47h-.6a29.32,29.32,0,0,0-17.45,6.19.89.89,0,0,1-.55.19Z"/><rect class="cls-4" x="149.75" y="377.15" width="224.25" height="91.04"/><text class="cls-5" transform="translate(136.6 141.23)"><tspan class="cls-6">C</tspan><tspan x="40.37" y="0">us</tspan><tspan class="cls-7" x="109.83" y="0">t</tspan><tspan x="134.31" y="0">om </tspan><tspan class="cls-6" x="-100.92" y="79">F</tspan><tspan x="-66.05" y="79">orms </tspan><tspan class="cls-8" x="101.09" y="79">A</tspan><tspan class="cls-9" x="145.14" y="79">c</tspan><tspan x="179.52" y="79">tions </tspan></text><text class="cls-10" transform="translate(278.65 286.62)"><tspan class="cls-11">F</tspan><tspan x="15.55" y="0">or Ele</tspan><tspan class="cls-12" x="88.52" y="0">m</tspan><tspan x="114.97" y="0">en</tspan><tspan class="cls-13" x="147.57" y="0">t</tspan><tspan x="157.72" y="0">or</tspan></text><text class="cls-14" transform="translate(133.09 434.06)"><tspan class="cls-15">b</tspan><tspan x="13.97" y="0">y</tspan></text></g></g></svg>